<?xml version="1.0" encoding="UTF-8" standalone="no"?>
<!-- Created with Inkscape (http://www.inkscape.org/) -->

<svg
   width="48"
   height="48"
   viewBox="0 0 48 48"
   version="1.1"
   id="svg1"
   xml:space="preserve"
   xmlns="http://www.w3.org/2000/svg"
   xmlns:svg="http://www.w3.org/2000/svg"><defs
     id="defs1" /><g
     id="layer2"
     style="display:inline;opacity:1"
     transform="translate(-105.57706,62.685623)"><rect
       style="display:inline;fill:none;stroke:#ffffff;stroke-width:0.840651;stroke-linejoin:round;stroke-dasharray:none;stroke-opacity:1"
       id="rect1-1-9"
       width="36.159351"
       height="36.159348"
       x="111.85738"
       y="-56.765293"
       ry="8.0000229" /><path
       id="path16"
       style="display:inline;opacity:1;fill:none;fill-opacity:1;stroke:#ffffff;stroke-width:1;stroke-linecap:round;stroke-linejoin:round;stroke-dasharray:none;stroke-opacity:1"
       d="m 133.21749,-41.649563 0.0686,-3.089705 c 0.56594,0.541694 -0.46742,0.377175 1.69154,1.28777 v 0 m -22.17989,17.35375 1.54582,-0.500688 0.71254,-2.307635 0.52541,2.005874 2.07344,-0.229117 -0.1075,-1.286432 h -0.49374 l 1.63517,-3.861421 1.80921,3.442469 1.60668,0.116927 -0.15171,-1.511439 2.32836,-1.057353 -0.22139,-1.093153 h -0.45607 l 1.7484,-4.032044 6.14355,0.122383 0.0224,-1.466005 -0.90095,-0.06375 2.62641,-4.080762 2.65307,3.971617 -1.07389,0.145393 -0.0215,1.51289 2.09033,3.373011 -0.67395,-0.05461 0.38972,1.499519 1.59209,-0.01622 0.52924,-0.99196 0.72374,1.053191 1.36872,-0.04419 1.89799,4.240272 -0.81016,0.182417 0.0257,0.709432 5.39076,0.849179 v 0 m -29.45975,-5.554801 c -3.19867,-4.880109 -1.87757,-9.491095 -1.87757,-9.491095 2.39961,-0.573142 13.26183,-1.290627 13.26183,-1.290627 0,0 -11.62917,-0.822181 -12.84018,-1.556496 4.95079,-12.742087 20.03451,-9.684803 23.94925,-3.676966 -3.16333,0.637158 -6.99832,0.911173 -6.99832,0.911173 0,0 5.48808,-0.119203 7.74814,0.720171 0,0 3.53589,5.421304 -0.10964,14.073932" /></g></svg>
